<svg xmlns="http://www.w3.org/2000/svg" id="canvas" width="970" height="1190" viewBox="2485 2045 970 1190" style="position:fixed;overflow:hidden;top:0px;left:0px;width:100%;height:100%;pointer-events:all;user-select:none;-webkit-user-select:none;-moz-user-select:none;font-family:Inter, arial, sans-serif;cursor:default;touch-action:none;outline:none"><defs><marker id="arrowhead" refX="1" refY="3" orient="auto" markerWidth="8" markerHeight="8"><path d="M2.91922181,1.64495663 L4.49787879,4.07365967 C4.64837316,4.30518948 4.58268096,4.61488128 4.35115115,4.76537565 C4.27004602,4.81809399 4.17538993,4.84615385 4.07865698,4.84615385 L0.921343022,4.84615385 C0.645200647,4.84615385 0.421343022,4.62229622 0.421343022,4.34615385 C0.421343022,4.24942089 0.44940288,4.1547648 0.502121214,4.07365967 L2.08077819,1.64495663 C2.23127257,1.41342682 2.54096436,1.34773462 2.77249418,1.498229 C2.83112579,1.53633954 2.88111126,1.58632502 2.91922181,1.64495663 Z" fill="#9babcf" transform="translate(2.500000, 2.923077) rotate(90.000000) translate(-2.500000, -2.923077)"></path></marker><marker id="arrowhead-selected" refX="1" refY="3" orient="auto" markerWidth="10" markerHeight="10"><path d="M2.91922181,1.64495663 L4.49787879,4.07365967 C4.64837316,4.30518948 4.58268096,4.61488128 4.35115115,4.76537565 C4.27004602,4.81809399 4.17538993,4.84615385 4.07865698,4.84615385 L0.921343022,4.84615385 C0.645200647,4.84615385 0.421343022,4.62229622 0.421343022,4.34615385 C0.421343022,4.24942089 0.44940288,4.1547648 0.502121214,4.07365967 L2.08077819,1.64495663 C2.23127257,1.41342682 2.54096436,1.34773462 2.77249418,1.498229 C2.83112579,1.53633954 2.88111126,1.58632502 2.91922181,1.64495663 Z" fill="#3366FF" transform="translate(2.500000, 2.923077) rotate(90.000000) translate(-2.500000, -2.923077) "></path></marker><pattern id="error-pattern" patternUnits="userSpaceOnUse" patternTransform="rotate(45 0 0)" width="5" height="5"><line x1="0" y1="0" x2="0" y2="5" stroke="#db4324" stroke-width="1"></line></pattern></defs><g id="wrapper" transform="translate(0, 0) scale(1)"><g transform="translate(2589, 2370)"><mask id="ctr_Wmrq4w0wGjFASSNf8Z8sY-mask"><rect x="-3" y="-3" width="776" height="776" fill="white"></rect><rect x="336.290625" y="-3" width="97.41875" height="6" fill="black"></rect></mask><rect width="762" height="760" fill="#fefbfb" stroke="#f7d1d2" stroke-width="2px" stroke-opacity="1" rx="10" ry="10" mask="url(#ctr_Wmrq4w0wGjFASSNf8Z8sY-mask)"></rect><g><rect width="16" height="16" x="-8" y="-8" fill="transparent"></rect><rect width="16" height="16" x="762" y="-8" fill="transparent"></rect><rect width="16" height="16" x="-8" y="762" fill="transparent"></rect><rect width="16" height="16" x="762" y="762" fill="transparent"></rect><rect width="16" height="754" x="-8" y="8" fill="transparent"></rect><rect width="16" height="754" x="762" y="8" fill="transparent"></rect><rect width="754" height="16" x="8" y="-8" fill="transparent"></rect><rect width="754" height="16" x="8" y="762" fill="transparent"></rect></g><g><g transform="translate(336.290625, -10)"><svg viewBox="0 0 50 50" width="22" height="22"><svg id="KX6mgmiNKWY0dDnx_fmv9" xmlns="http://www.w3.org/2000/svg" viewBox="4.58 5.08 41.6 40.35" width="50" height="50"><g fill="none" fill-rule="evenodd"><path fill="#326CE5" d="M25.296 5.886c-.354.018-.7.106-1.02.258L10.371 12.79c-.36.172-.677.422-.926.732s-.424.67-.513 1.057L5.5 29.503a2.616 2.616 0 0 0 .512 2.232l9.625 11.967a2.655 2.655 0 0 0 2.08.993l15.435-.004a2.677 2.677 0 0 0 2.079-.99l9.621-11.97a2.627 2.627 0 0 0 .514-2.232l-3.435-14.925a2.628 2.628 0 0 0-.514-1.057 2.655 2.655 0 0 0-.925-.732l-13.908-6.64a2.678 2.678 0 0 0-1.29-.259Z"></path><path fill="#fff" stroke="#fff" stroke-width=".25" d="M25.433 10.966c-.46 0-.832.414-.832.925l.002.023c0 .069-.004.153-.002.213.011.295.075.52.114.791.07.581.128 1.063.092 1.51-.035.17-.16.323-.27.43l-.02.353a10.707 10.707 0 0 0-6.943 3.338 13.973 13.973 0 0 1-.3-.213c-.149.02-.3.066-.495-.048-.372-.251-.712-.597-1.122-1.014-.188-.2-.324-.39-.548-.582-.05-.043-.128-.102-.185-.147a.99.99 0 0 0-.58-.219.802.802 0 0 0-.663.293c-.286.36-.195.91.205 1.228l.012.008c.055.045.122.102.173.14.237.174.453.264.69.403.498.307.91.562 1.238.87.127.136.15.376.167.48l.266.238a10.77 10.77 0 0 0-1.698 7.509l-.349.101c-.091.119-.221.306-.357.361-.428.135-.91.185-1.492.246-.273.023-.51.009-.799.064-.063.012-.152.035-.222.051l-.007.002-.013.004c-.49.118-.805.57-.704 1.013.102.445.58.715 1.074.609l.013-.002.016-.005c.069-.015.155-.032.215-.048.285-.077.49-.189.747-.287.55-.197 1.007-.362 1.451-.427.186-.014.381.115.479.17l.362-.063a10.832 10.832 0 0 0 4.8 5.994l-.15.362c.054.141.114.332.073.471-.161.419-.438.861-.753 1.354-.153.228-.309.405-.446.665-.033.063-.075.158-.107.224-.214.458-.057.985.354 1.183.413.2.927-.01 1.149-.47l.001-.001v-.002c.032-.065.077-.15.104-.212.118-.27.157-.501.24-.763.22-.553.34-1.133.644-1.495.083-.099.218-.137.359-.175l.188-.341a10.754 10.754 0 0 0 7.681.02c.053.093.152.274.178.32.143.046.299.07.425.258.227.387.382.845.571 1.4.083.26.124.492.242.762.027.062.072.148.103.213.222.46.737.671 1.151.472.41-.198.568-.725.354-1.183-.032-.066-.076-.162-.108-.224-.138-.26-.294-.436-.447-.663-.315-.493-.576-.903-.738-1.322-.068-.216.011-.35.064-.49-.031-.037-.099-.24-.139-.337 2.303-1.36 4.001-3.53 4.799-6.036.107.017.294.05.355.062.126-.082.24-.19.466-.172.445.064.9.23 1.452.427.256.098.462.212.747.288.06.016.146.03.215.046l.016.005.012.002c.494.106.973-.164 1.074-.608.102-.444-.213-.896-.704-1.014-.071-.016-.172-.044-.242-.057-.29-.055-.525-.041-.798-.064-.582-.06-1.064-.11-1.492-.245-.175-.068-.3-.276-.36-.361l-.336-.098c.174-1.26.127-2.573-.174-3.886a10.775 10.775 0 0 0-1.56-3.605c.086-.078.25-.223.295-.265.014-.15.002-.306.157-.471.327-.308.74-.563 1.238-.87.236-.139.454-.229.691-.404.054-.04.127-.102.184-.147.399-.319.49-.868.204-1.227-.286-.36-.842-.394-1.241-.075-.057.045-.134.104-.185.147-.224.193-.362.383-.55.582-.41.417-.75.765-1.122 1.015-.161.095-.398.062-.505.056l-.317.226a10.908 10.908 0 0 0-6.909-3.339 19.51 19.51 0 0 1-.02-.371c-.108-.104-.239-.193-.272-.417-.036-.447.025-.929.095-1.51.038-.27.102-.496.113-.791.003-.067-.001-.164-.001-.237 0-.51-.373-.924-.833-.924Zm-1.042 6.456-.247 4.366-.018.009a.734.734 0 0 1-1.165.562l-.007.003-3.58-2.538a8.575 8.575 0 0 1 5.017-2.402Zm2.086 0a8.647 8.647 0 0 1 4.987 2.404l-3.557 2.522-.012-.005a.734.734 0 0 1-1.167-.56l-.004-.002-.247-4.36Zm-8.401 4.033 3.269 2.924-.004.018a.733.733 0 0 1-.288 1.26l-.004.015-4.19 1.21a8.572 8.572 0 0 1 1.217-5.427Zm14.692.002a8.678 8.678 0 0 1 1.072 2.62 8.66 8.66 0 0 1 .182 2.79l-4.212-1.213-.003-.018a.734.734 0 0 1-.288-1.26l-.002-.01 3.25-2.909Zm-8.005 3.148h1.34l.831 1.04-.298 1.299-1.203.578-1.206-.58-.298-1.299.834-1.038Zm4.293 3.56a.729.729 0 0 1 .17.013l.006-.009 4.334.733a8.583 8.583 0 0 1-3.47 4.359l-1.682-4.064.005-.007a.735.735 0 0 1 .637-1.025Zm-7.28.018a.734.734 0 0 1 .664 1.023l.013.016-1.665 4.023a8.619 8.619 0 0 1-3.46-4.33l4.298-.728.007.009a.736.736 0 0 1 .144-.013Zm3.63 1.763a.726.726 0 0 1 .344.073c.146.07.258.18.329.313h.016l2.118 3.827a8.76 8.76 0 0 1-.846.236 8.606 8.606 0 0 1-4.697-.241l2.112-3.82h.004a.735.735 0 0 1 .62-.388Z"></path></g></svg></svg></g><text x="364.290625" y="4" font-size="12" font-weight="400" fill="black">Kubernetes</text></g></g><g transform="translate(2644, 2975)"><mask id="ctr_VZATwmFXOuG39L4zAnD6f-mask"><rect x="-3" y="-3" width="446" height="116" fill="white"></rect><rect x="170.971875" y="-3" width="98.05625" height="6" fill="black"></rect></mask><rect width="432" height="100" fill="#fbfcfc" stroke="#d8dadd" stroke-width="2px" stroke-opacity="1" rx="10" ry="10" mask="url(#ctr_VZATwmFXOuG39L4zAnD6f-mask)"></rect><g><rect width="16" height="16" x="-8" y="-8" fill="transparent"></rect><rect width="16" height="16" x="432" y="-8" fill="transparent"></rect><rect width="16" height="16" x="-8" y="102" fill="transparent"></rect><rect width="16" height="16" x="432" y="102" fill="transparent"></rect><rect width="16" height="94" x="-8" y="8" fill="transparent"></rect><rect width="16" height="94" x="432" y="8" fill="transparent"></rect><rect width="424" height="16" x="8" y="-8" fill="transparent"></rect><rect width="424" height="16" x="8" y="102" fill="transparent"></rect></g><g><g transform="translate(170.971875, -10)"><svg viewBox="0 0 50 50" width="22" height="22"><svg id="4RoUgu9Kw-IIlWf_7_9ci" xmlns="http://www.w3.org/2000/svg" viewBox="8.64 4.76 33.16 41.6" width="50" height="50"><path fill="#232F3D" fill-rule="evenodd" d="M32.021 43.215a38.18 38.18 0 0 1-3.602.428c-.508.037-1.024.064-1.546.084a47.68 47.68 0 0 1-3.186 0c-.524-.02-1.04-.047-1.547-.084a38.185 38.185 0 0 1-3.603-.428c-4.471-.758-7.25-2.348-7.25-4.149V13.563c2.731 1.728 7.964 2.803 13.993 2.803 6.023 0 11.189-1.058 13.93-2.768v25.468c0 1.835-2.687 3.386-7.189 4.15zM25.28 7.4c7.781 0 12.865 1.99 13.771 4.039-1.52 1.518-6.387 3.106-13.771 3.106-7.377 0-12.327-1.622-13.804-3.128l-.033.032c.897-2.052 6.009-4.049 13.837-4.049zm0-1.822c-9.312 0-15.815 2.677-15.815 6.51v26.98c0 1.664 1.14 4.652 8.767 5.946 1.195.201 2.465.352 3.776.447a45.39 45.39 0 0 0 1.613.088 47.102 47.102 0 0 0 3.317 0c.547-.02 1.083-.05 1.612-.088a40.303 40.303 0 0 0 3.776-.447c7.575-1.286 8.707-4.277 8.707-5.947V12.087c0-3.833-6.479-6.51-15.753-6.51z" clip-rule="evenodd"></path></svg></svg></g><text x="198.971875" y="4" font-size="12" font-weight="400" fill="black">middleware</text></g></g><g transform="translate(2644, 2645)"><mask id="ctr_3UyAm29Jv2q0zjwW4evsZ-mask"><rect x="-3" y="-3" width="666" height="116" fill="white"></rect><rect x="292.803125" y="-3" width="74.39375000000001" height="6" fill="black"></rect></mask><rect width="652" height="100" fill="#fafcfe" stroke="#ccdaf9" stroke-width="2px" stroke-opacity="1" rx="10" ry="10" mask="url(#ctr_3UyAm29Jv2q0zjwW4evsZ-mask)"></rect><g><rect width="16" height="16" x="-8" y="-8" fill="transparent"></rect><rect width="16" height="16" x="652" y="-8" fill="transparent"></rect><rect width="16" height="16" x="-8" y="102" fill="transparent"></rect><rect width="16" height="16" x="652" y="102" fill="transparent"></rect><rect width="16" height="94" x="-8" y="8" fill="transparent"></rect><rect width="16" height="94" x="652" y="8" fill="transparent"></rect><rect width="644" height="16" x="8" y="-8" fill="transparent"></rect><rect width="644" height="16" x="8" y="102" fill="transparent"></rect></g><g><g transform="translate(292.803125, -10)"><svg viewBox="0 0 50 50" width="22" height="22"><svg id="f36AC4gfnnUt9GYK26h1P" xmlns="http://www.w3.org/2000/svg" viewBox="4.2 4.76 41.53 40.41" width="50" height="50"><g fill="none" fill-rule="evenodd"><g clip-path="url(#uvTszsp7a4rzYGT6Pto_K)"><path fill="#326CE5" d="M24.868 6.62c-.334.017-.663.1-.965.245L10.73 13.159a2.49 2.49 0 0 0-1.363 1.695l-3.25 14.138a2.478 2.478 0 0 0 .485 2.115l9.118 11.337a2.515 2.515 0 0 0 1.97.94l14.622-.004a2.536 2.536 0 0 0 1.97-.938l9.114-11.339a2.49 2.49 0 0 0 .487-2.114L40.628 14.85a2.492 2.492 0 0 0-1.363-1.694L26.09 6.865c-.38-.182-.8-.266-1.222-.245Z"></path><path fill="#fff" d="M24.861 5.597c-.353.018-.699.106-1.017.26L9.936 12.498c-.36.172-.676.422-.925.732-.25.31-.425.671-.514 1.057l-3.43 14.926a2.617 2.617 0 0 0 .512 2.232l9.625 11.968a2.656 2.656 0 0 0 2.08.993l15.435-.004a2.677 2.677 0 0 0 2.079-.99l9.622-11.97a2.63 2.63 0 0 0 .514-2.231l-3.436-14.927a2.629 2.629 0 0 0-1.438-1.787L26.151 5.854a2.678 2.678 0 0 0-1.29-.257Zm.007 1.024c.421-.021.841.063 1.222.244l13.174 6.291a2.515 2.515 0 0 1 1.363 1.695l3.255 14.139a2.48 2.48 0 0 1-.487 2.114l-9.114 11.338a2.515 2.515 0 0 1-1.97.939l-14.622.003a2.537 2.537 0 0 1-1.97-.94L6.603 31.107a2.487 2.487 0 0 1-.485-2.114l3.25-14.138a2.49 2.49 0 0 1 .486-1.002c.236-.294.536-.53.877-.693l13.173-6.295c.302-.144.63-.227.965-.244Z"></path><path fill="#fff" d="M12.973 29.448h6.45v4.528h-6.45v-4.528zm8.802 0h6.45v4.528h-6.45v-4.528zm8.802 0h6.45v4.528h-6.45v-4.528zM19.89 16.024h10.22v4.528H19.89v-4.528z" clip-rule="evenodd"></path><path stroke="#fff" stroke-linejoin="round" stroke-miterlimit="10" stroke-width=".529" d="M25 20.552V25h-8.798v4.442M25 20.552V25h8.798v4.442"></path><path stroke="#fff" stroke-linejoin="round" stroke-miterlimit="10" stroke-width=".529" d="M24.982 20.555v4.448h.037v4.442"></path></g><defs><clipPath id="uvTszsp7a4rzYGT6Pto_K"><path fill="#fff" d="M0 0h40v38.813H0z" transform="translate(5 5.593)"></path></clipPath></defs></g></svg></svg></g><text x="320.803125" y="4" font-size="12" font-weight="400" fill="black">Service</text></g></g><g transform="translate(2754, 2425)"><mask id="ctr_Z9IMltghl76lDLxAWZhwN-mask"><rect x="-3" y="-3" width="446" height="116" fill="white"></rect><rect x="191.896875" y="-3" width="56.20625" height="6" fill="black"></rect></mask><rect width="432" height="100" fill="#fbfcfc" stroke="#d8dadd" stroke-width="2px" stroke-opacity="1" rx="10" ry="10" mask="url(#ctr_Z9IMltghl76lDLxAWZhwN-mask)"></rect><g><rect width="16" height="16" x="-8" y="-8" fill="transparent"></rect><rect width="16" height="16" x="432" y="-8" fill="transparent"></rect><rect width="16" height="16" x="-8" y="102" fill="transparent"></rect><rect width="16" height="16" x="432" y="102" fill="transparent"></rect><rect width="16" height="94" x="-8" y="8" fill="transparent"></rect><rect width="16" height="94" x="432" y="8" fill="transparent"></rect><rect width="424" height="16" x="8" y="-8" fill="transparent"></rect><rect width="424" height="16" x="8" y="102" fill="transparent"></rect></g><g><g transform="translate(191.896875, -10)"><svg viewBox="0 0 50 50" width="22" height="22"><svg id="o_6EfctPbBAIEHJTu0_lK" xmlns="http://www.w3.org/2000/svg" fill="none" viewBox="0 0 400 300" width="50" height="50"><path fill="#232F3D" fill-rule="evenodd" d="M356.25 0H43.75A43.749 43.749 0 0 0 0 43.75v212.5A43.751 43.751 0 0 0 43.75 300h312.5A43.75 43.75 0 0 0 400 256.25V43.75A43.75 43.75 0 0 0 356.25 0ZM12.5 43.75A31.249 31.249 0 0 1 43.75 12.5h312.5a31.247 31.247 0 0 1 31.25 31.25v12.5h-375v-12.5Zm0 212.5V68.75H125V287.5H43.75a31.248 31.248 0 0 1-31.25-31.25Zm375 0a31.247 31.247 0 0 1-31.25 31.25H137.5V68.75h250v187.5ZM48.125 30a6.041 6.041 0 0 1 1.388 6.755 6.041 6.041 0 0 1-1.388 1.995 4.443 4.443 0 0 1-2 1.375 5.077 5.077 0 0 1-2.375.5 6.247 6.247 0 0 1-5.691-3.87A6.25 6.25 0 0 1 39.375 30a6.251 6.251 0 0 1 8.75 0Zm25 0a6.046 6.046 0 0 1 1.877 4.375 6.048 6.048 0 0 1-1.877 4.375 4.446 4.446 0 0 1-2 1.375 5.08 5.08 0 0 1-2.375.5 6.412 6.412 0 0 1-6.25-6.25A5.08 5.08 0 0 1 63 32a4.446 4.446 0 0 1 1.375-2 6.138 6.138 0 0 1 6.75-1.375c.781.264 1.474.74 2 1.375ZM99.5 32a5.08 5.08 0 0 1 .5 2.375 6.412 6.412 0 0 1-6.25 6.25 5.08 5.08 0 0 1-2.375-.5 4.446 4.446 0 0 1-2-1.375 5.854 5.854 0 0 1-1.875-4.375A5.08 5.08 0 0 1 88 32a4.446 4.446 0 0 1 1.375-2 6.25 6.25 0 0 1 8.75 0 4.446 4.446 0 0 1 1.375 2Zm-62 74.25a6.248 6.248 0 0 1 6.25-6.25h50c1.658 0 3.247.658 4.419 1.831a6.245 6.245 0 0 1 0 8.838 6.245 6.245 0 0 1-4.419 1.831h-50a6.247 6.247 0 0 1-6.25-6.25Zm62.5 37.5a6.245 6.245 0 0 1-1.831 4.419A6.245 6.245 0 0 1 93.75 150h-50a6.247 6.247 0 0 1-6.25-6.25 6.248 6.248 0 0 1 6.25-6.25h50c1.658 0 3.247.658 4.419 1.831A6.245 6.245 0 0 1 100 143.75Zm0 37.5a6.245 6.245 0 0 1-1.831 4.419 6.245 6.245 0 0 1-4.419 1.831h-50a6.247 6.247 0 0 1-6.25-6.25 6.248 6.248 0 0 1 6.25-6.25h50c1.658 0 3.247.658 4.419 1.831A6.245 6.245 0 0 1 100 181.25Zm0 37.5a6.245 6.245 0 0 1-1.831 4.419A6.245 6.245 0 0 1 93.75 225h-50a6.247 6.247 0 0 1-6.25-6.25 6.248 6.248 0 0 1 6.25-6.25h50c1.658 0 3.247.658 4.419 1.831A6.245 6.245 0 0 1 100 218.75Zm0 37.5a6.245 6.245 0 0 1-1.831 4.419 6.245 6.245 0 0 1-4.419 1.831h-50a6.247 6.247 0 0 1-6.25-6.25 6.248 6.248 0 0 1 6.25-6.25h50c1.658 0 3.247.658 4.419 1.831A6.245 6.245 0 0 1 100 256.25ZM175 150h175c6.63 0 12.989-2.634 17.678-7.322a25.004 25.004 0 0 0 0-35.356A25.004 25.004 0 0 0 350 100H175a25.004 25.004 0 0 0-17.678 7.322 25.004 25.004 0 0 0 0 35.356A25.004 25.004 0 0 0 175 150Zm0-37.5h175a12.501 12.501 0 0 1 0 25H175a12.501 12.501 0 0 1 0-25Zm200 68.75a6.245 6.245 0 0 1-1.831 4.419 6.245 6.245 0 0 1-4.419 1.831h-87.5a6.245 6.245 0 0 1-4.419-1.831 6.245 6.245 0 0 1 0-8.838A6.245 6.245 0 0 1 281.25 175h87.5c1.658 0 3.247.658 4.419 1.831A6.245 6.245 0 0 1 375 181.25Zm0 25a6.245 6.245 0 0 1-1.831 4.419 6.245 6.245 0 0 1-4.419 1.831h-87.5a6.245 6.245 0 0 1-4.419-1.831 6.245 6.245 0 0 1 0-8.838A6.245 6.245 0 0 1 281.25 200h87.5c1.658 0 3.247.658 4.419 1.831A6.245 6.245 0 0 1 375 206.25Zm0 25a6.245 6.245 0 0 1-1.831 4.419 6.245 6.245 0 0 1-4.419 1.831h-87.5a6.245 6.245 0 0 1-4.419-1.831 6.245 6.245 0 0 1 0-8.838A6.245 6.245 0 0 1 281.25 225h87.5c1.658 0 3.247.658 4.419 1.831A6.245 6.245 0 0 1 375 231.25Zm0 25a6.245 6.245 0 0 1-1.831 4.419 6.245 6.245 0 0 1-4.419 1.831h-87.5a6.245 6.245 0 0 1-4.419-1.831 6.245 6.245 0 0 1 0-8.838A6.245 6.245 0 0 1 281.25 250h87.5c1.658 0 3.247.658 4.419 1.831A6.245 6.245 0 0 1 375 256.25Zm-200 6.25h50c6.63 0 12.989-2.634 17.678-7.322A25.004 25.004 0 0 0 250 237.5V200c0-6.63-2.634-12.989-7.322-17.678A25.004 25.004 0 0 0 225 175h-50a25.004 25.004 0 0 0-17.678 7.322A25.004 25.004 0 0 0 150 200v37.5c0 6.63 2.634 12.989 7.322 17.678A25.004 25.004 0 0 0 175 262.5ZM162.5 200a12.501 12.501 0 0 1 12.5-12.5h50a12.501 12.501 0 0 1 12.5 12.5v37.5A12.501 12.501 0 0 1 225 250h-50a12.501 12.501 0 0 1-12.5-12.5V200Z" clip-rule="evenodd"></path></svg></svg></g><text x="219.896875" y="4" font-size="12" font-weight="400" fill="black">web</text></g></g><g transform="translate(2915,2255)" width="110" height="110"><g transform="translate(30,30)"><path stroke="none" d="
    M 0, 16.6
    C 0, 2.9299 2.9299, 0 16.6, 0
    L 33.4, 0
    C 47.0701, 0 50, 2.9299 50, 16.6
    L 50, 33.4
    C 50, 47.0701 47.0701, 50 33.4, 50
    L 16.6, 50
    C 2.9299, 50 0, 47.0701 0, 33.4
    L 0, 16.6
  " stroke-width="2" fill="#d5e1fa"></path></g><svg viewBox="0 0 50 50" width="35" height="35" x="37.5" y="37.5"><svg id="CMifO55hu3gH_a3tAie-4" xmlns="http://www.w3.org/2000/svg" viewBox="4.2 4.76 41.6 40.41" width="50" height="50"><g fill="none" fill-rule="evenodd"><g clip-path="url(#JiqieOBWLj_n5bncRPCxP)"><path fill="#326CE5" d="M24.886 6.62c-.335.017-.663.1-.965.245l-13.173 6.294a2.49 2.49 0 0 0-1.363 1.695l-3.25 14.138a2.478 2.478 0 0 0 .485 2.115l9.118 11.337a2.515 2.515 0 0 0 1.97.94l14.621-.004a2.535 2.535 0 0 0 1.97-.938l9.114-11.339a2.49 2.49 0 0 0 .487-2.114L40.645 14.85a2.515 2.515 0 0 0-1.363-1.695l-13.174-6.29c-.38-.182-.8-.266-1.222-.245Z"></path><path fill="#fff" d="M24.88 5.597c-.354.018-.7.106-1.018.26L9.954 12.498c-.36.172-.676.422-.925.732-.25.31-.425.671-.514 1.057l-3.43 14.926a2.617 2.617 0 0 0 .512 2.232l9.625 11.968a2.656 2.656 0 0 0 2.079.993l15.436-.004a2.677 2.677 0 0 0 2.079-.99l9.621-11.97a2.63 2.63 0 0 0 .514-2.231l-3.435-14.927a2.629 2.629 0 0 0-1.439-1.787L26.17 5.854a2.678 2.678 0 0 0-1.29-.257Zm.006 1.024c.421-.021.841.063 1.221.244l13.175 6.291a2.515 2.515 0 0 1 1.363 1.695L43.9 28.99a2.48 2.48 0 0 1-.487 2.114L34.3 42.442a2.515 2.515 0 0 1-1.97.939l-14.622.003a2.537 2.537 0 0 1-1.97-.94L6.62 31.107a2.487 2.487 0 0 1-.485-2.114l3.25-14.138a2.49 2.49 0 0 1 .486-1.002c.236-.294.535-.53.876-.693L23.92 6.865c.303-.144.63-.227.966-.244Z"></path><path fill="#fff" d="M31.112 34.033h-5.036L15.162 20.38h-3.158v-4.469h5.134l10.919 13.653h3.055V26.03l6.92 5.766-6.92 5.771v-3.534ZM25.62 23.486l2.437-3.05h3.055v3.534l6.92-5.766-6.92-5.771v3.534h-5.036l-3.232 4.046 2.776 3.473Zm-7.98 3.028-2.478 3.106h-3.158v4.469h5.134l3.278-4.102-2.776-3.473Z"></path></g><defs><clipPath id="JiqieOBWLj_n5bncRPCxP"><path fill="#fff" d="M0 0h40v38.813H0z" transform="translate(5.018 5.593)"></path></clipPath></defs></g></svg></svg><g transform="translate(55, 89)"><text x="0" y="0" text-anchor="middle" style="fill:#101840;font-size:10px" dominant-baseline="middle" alignment-baseline="middle"><tspan>Ingress</tspan></text></g><rect width="60" height="60" x="25" y="25" fill="transparent"></rect><rect width="40" height="40" x="35" y="35" fill="transparent"></rect></g><g transform="translate(2915,2420)" width="110" height="110"><g transform="translate(30,30)"><path stroke="none" d="
    M 0, 16.6
    C 0, 2.9299 2.9299, 0 16.6, 0
    L 33.4, 0
    C 47.0701, 0 50, 2.9299 50, 16.6
    L 50, 33.4
    C 50, 47.0701 47.0701, 50 33.4, 50
    L 16.6, 50
    C 2.9299, 50 0, 47.0701 0, 33.4
    L 0, 16.6
  " stroke-width="2" fill="#dfe1e3"></path></g><svg viewBox="0 0 50 50" width="35" height="35" x="37.5" y="37.5"><svg id="rh5QbmBQLL8eZFN2n9Afa" xmlns="http://www.w3.org/2000/svg" viewBox="7.2 4.2 36.47 41.53" width="50" height="50"><path fill="#232F3D" fill-rule="evenodd" d="M26.35 42.522V35.1l7.814-4.51a.907.907 0 0 0 .454-.787v-9.177l6.453-3.724v17.12l-14.72 8.5zM9.815 16.902l6.453 3.724v9.177c0 .324.173.624.454.786l7.814 4.51v7.423l-14.721-8.5v-17.12zM26.35 25.49l6.453-3.725v7.514l-6.453 3.726V25.49zm-8.267-3.726 6.453 3.726v7.515l-6.453-3.726v-7.515zm7.36 2.064-6.32-3.65 6.32-3.647 6.32 3.648-6.32 3.65zm0-16.874 14.613 8.437-6.478 3.74-7.681-4.434a.91.91 0 0 0-.908 0l-7.681 4.435-6.478-3.74 14.613-8.438zm16.99 7.713L25.896 5.12a.915.915 0 0 0-.908 0L8.454 14.667a.909.909 0 0 0-.454.786v19.093c0 .324.173.623.454.786l16.535 9.547a.906.906 0 0 0 .908 0l16.535-9.547a.909.909 0 0 0 .454-.786V15.453a.909.909 0 0 0-.454-.786z"></path></svg></svg><g transform="translate(55, 89)"><text x="0" y="0" text-anchor="middle" style="fill:#101840;font-size:10px" dominant-baseline="middle" alignment-baseline="middle"><tspan>console</tspan></text></g><rect width="60" height="60" x="25" y="25" fill="transparent"></rect><rect width="40" height="40" x="35" y="35" fill="transparent"></rect></g><g transform="translate(2640,2640)" width="110" height="110"><g transform="translate(30,30)"><path stroke="none" d="
    M 0, 16.6
    C 0, 2.9299 2.9299, 0 16.6, 0
    L 33.4, 0
    C 47.0701, 0 50, 2.9299 50, 16.6
    L 50, 33.4
    C 50, 47.0701 47.0701, 50 33.4, 50
    L 16.6, 50
    C 2.9299, 50 0, 47.0701 0, 33.4
    L 0, 16.6
  " stroke-width="2" fill="#dfe1e3"></path></g><svg viewBox="0 0 50 50" width="35" height="35" x="37.5" y="37.5"><svg id="5FEzuozaGTNi6gOTOs8wj" xmlns="http://www.w3.org/2000/svg" viewBox="7.2 4.2 36.47 41.53" width="50" height="50"><path fill="#232F3D" fill-rule="evenodd" d="M26.35 42.522V35.1l7.814-4.51a.907.907 0 0 0 .454-.787v-9.177l6.453-3.724v17.12l-14.72 8.5zM9.815 16.902l6.453 3.724v9.177c0 .324.173.624.454.786l7.814 4.51v7.423l-14.721-8.5v-17.12zM26.35 25.49l6.453-3.725v7.514l-6.453 3.726V25.49zm-8.267-3.726 6.453 3.726v7.515l-6.453-3.726v-7.515zm7.36 2.064-6.32-3.65 6.32-3.647 6.32 3.648-6.32 3.65zm0-16.874 14.613 8.437-6.478 3.74-7.681-4.434a.91.91 0 0 0-.908 0l-7.681 4.435-6.478-3.74 14.613-8.438zm16.99 7.713L25.896 5.12a.915.915 0 0 0-.908 0L8.454 14.667a.909.909 0 0 0-.454.786v19.093c0 .324.173.623.454.786l16.535 9.547a.906.906 0 0 0 .908 0l16.535-9.547a.909.909 0 0 0 .454-.786V15.453a.909.909 0 0 0-.454-.786z"></path></svg></svg><g transform="translate(55, 89)"><text x="0" y="0" text-anchor="middle" style="fill:#101840;font-size:10px" dominant-baseline="middle" alignment-baseline="middle"><tspan>files</tspan></text></g><rect width="60" height="60" x="25" y="25" fill="transparent"></rect><rect width="40" height="40" x="35" y="35" fill="transparent"></rect></g><g transform="translate(2915,2640)" width="110" height="110"><g transform="translate(30,30)"><path stroke="none" d="
    M 0, 16.6
    C 0, 2.9299 2.9299, 0 16.6, 0
    L 33.4, 0
    C 47.0701, 0 50, 2.9299 50, 16.6
    L 50, 33.4
    C 50, 47.0701 47.0701, 50 33.4, 50
    L 16.6, 50
    C 2.9299, 50 0, 47.0701 0, 33.4
    L 0, 16.6
  " stroke-width="2" fill="#dfe1e3"></path></g><svg viewBox="0 0 50 50" width="35" height="35" x="37.5" y="37.5"><svg id="0dj3qS1bsXOxr7UQyyq8P" xmlns="http://www.w3.org/2000/svg" viewBox="7.2 4.2 36.47 41.53" width="50" height="50"><path fill="#232F3D" fill-rule="evenodd" d="M26.35 42.522V35.1l7.814-4.51a.907.907 0 0 0 .454-.787v-9.177l6.453-3.724v17.12l-14.72 8.5zM9.815 16.902l6.453 3.724v9.177c0 .324.173.624.454.786l7.814 4.51v7.423l-14.721-8.5v-17.12zM26.35 25.49l6.453-3.725v7.514l-6.453 3.726V25.49zm-8.267-3.726 6.453 3.726v7.515l-6.453-3.726v-7.515zm7.36 2.064-6.32-3.65 6.32-3.647 6.32 3.648-6.32 3.65zm0-16.874 14.613 8.437-6.478 3.74-7.681-4.434a.91.91 0 0 0-.908 0l-7.681 4.435-6.478-3.74 14.613-8.438zm16.99 7.713L25.896 5.12a.915.915 0 0 0-.908 0L8.454 14.667a.909.909 0 0 0-.454.786v19.093c0 .324.173.623.454.786l16.535 9.547a.906.906 0 0 0 .908 0l16.535-9.547a.909.909 0 0 0 .454-.786V15.453a.909.909 0 0 0-.454-.786z"></path></svg></svg><g transform="translate(55, 89)"><text x="0" y="0" text-anchor="middle" style="fill:#101840;font-size:10px" dominant-baseline="middle" alignment-baseline="middle"><tspan>tink</tspan></text></g><rect width="60" height="60" x="25" y="25" fill="transparent"></rect><rect width="40" height="40" x="35" y="35" fill="transparent"></rect></g><g transform="translate(3190,2640)" width="110" height="110"><g transform="translate(30,30)"><path stroke="none" d="
    M 0, 16.6
    C 0, 2.9299 2.9299, 0 16.6, 0
    L 33.4, 0
    C 47.0701, 0 50, 2.9299 50, 16.6
    L 50, 33.4
    C 50, 47.0701 47.0701, 50 33.4, 50
    L 16.6, 50
    C 2.9299, 50 0, 47.0701 0, 33.4
    L 0, 16.6
  " stroke-width="2" fill="#dfe1e3"></path></g><svg viewBox="0 0 50 50" width="35" height="35" x="37.5" y="37.5"><svg id="AhZMEeiLtVdyu1ABmq5My" xmlns="http://www.w3.org/2000/svg" viewBox="7.2 4.2 36.47 41.53" width="50" height="50"><path fill="#232F3D" fill-rule="evenodd" d="M26.35 42.522V35.1l7.814-4.51a.907.907 0 0 0 .454-.787v-9.177l6.453-3.724v17.12l-14.72 8.5zM9.815 16.902l6.453 3.724v9.177c0 .324.173.624.454.786l7.814 4.51v7.423l-14.721-8.5v-17.12zM26.35 25.49l6.453-3.725v7.514l-6.453 3.726V25.49zm-8.267-3.726 6.453 3.726v7.515l-6.453-3.726v-7.515zm7.36 2.064-6.32-3.65 6.32-3.647 6.32 3.648-6.32 3.65zm0-16.874 14.613 8.437-6.478 3.74-7.681-4.434a.91.91 0 0 0-.908 0l-7.681 4.435-6.478-3.74 14.613-8.438zm16.99 7.713L25.896 5.12a.915.915 0 0 0-.908 0L8.454 14.667a.909.909 0 0 0-.454.786v19.093c0 .324.173.623.454.786l16.535 9.547a.906.906 0 0 0 .908 0l16.535-9.547a.909.909 0 0 0 .454-.786V15.453a.909.909 0 0 0-.454-.786z"></path></svg></svg><g transform="translate(55, 89)"><text x="0" y="0" text-anchor="middle" style="fill:#101840;font-size:10px" dominant-baseline="middle" alignment-baseline="middle"><tspan>analysis</tspan></text></g><rect width="60" height="60" x="25" y="25" fill="transparent"></rect><rect width="40" height="40" x="35" y="35" fill="transparent"></rect></g><g transform="translate(2915,2145)" width="110" height="110"><g transform="translate(30,30)"><path stroke="none" d="
    M 0, 16.6
    C 0, 2.9299 2.9299, 0 16.6, 0
    L 33.4, 0
    C 47.0701, 0 50, 2.9299 50, 16.6
    L 50, 33.4
    C 50, 47.0701 47.0701, 50 33.4, 50
    L 16.6, 50
    C 2.9299, 50 0, 47.0701 0, 33.4
    L 0, 16.6
  " stroke-width="2" fill="#dfe1e3"></path></g><svg viewBox="0 0 50 50" width="35" height="35" x="37.5" y="37.5"><svg id="GRZOcBWEVwWFBQLHzpjA7" xmlns="http://www.w3.org/2000/svg" viewBox="0 0 448 512" width="50" height="50"><path fill="#232F3D" d="M224 256c70.7 0 128-57.3 128-128S294.7 0 224 0 96 57.3 96 128s57.3 128 128 128zm89.6 32h-16.7c-22.2 10.2-46.9 16-72.9 16s-50.6-5.8-72.9-16h-16.7C60.2 288 0 348.2 0 422.4V464c0 26.5 21.5 48 48 48h352c26.5 0 48-21.5 48-48v-41.6c0-74.2-60.2-134.4-134.4-134.4z"></path></svg></svg><g transform="translate(55, 89)"><text x="0" y="0" text-anchor="middle" style="fill:#101840;font-size:10px" dominant-baseline="middle" alignment-baseline="middle"><tspan>User</tspan></text></g><rect width="60" height="60" x="25" y="25" fill="transparent"></rect><rect width="40" height="40" x="35" y="35" fill="transparent"></rect></g><g transform="translate(2750,2805)" width="110" height="110"><g transform="translate(30,30)"><path stroke="none" d="
    M 0, 16.6
    C 0, 2.9299 2.9299, 0 16.6, 0
    L 33.4, 0
    C 47.0701, 0 50, 2.9299 50, 16.6
    L 50, 33.4
    C 50, 47.0701 47.0701, 50 33.4, 50
    L 16.6, 50
    C 2.9299, 50 0, 47.0701 0, 33.4
    L 0, 16.6
  " stroke-width="2" fill="#d5e1fa"></path></g><svg viewBox="0 0 50 50" width="35" height="35" x="37.5" y="37.5"><svg id="igU_VnRUQ-XUrwL2bmEVf" xmlns="http://www.w3.org/2000/svg" viewBox="4.33 4.76 41.53 40.41" width="50" height="50"><g fill="none" fill-rule="evenodd"><g clip-path="url(#_PZvBQLXmlgOoHBswN-EC)"><path fill="#326CE5" d="M24.994 6.62c-.335.017-.663.1-.965.245l-13.173 6.294a2.49 2.49 0 0 0-1.363 1.695l-3.25 14.138a2.478 2.478 0 0 0 .485 2.115l9.118 11.337a2.517 2.517 0 0 0 1.97.94l14.621-.004a2.535 2.535 0 0 0 1.97-.938l9.114-11.339a2.49 2.49 0 0 0 .487-2.114L40.753 14.85a2.514 2.514 0 0 0-1.363-1.695l-13.175-6.29c-.38-.182-.8-.266-1.22-.245Z"></path><path fill="#fff" d="M24.987 5.597c-.353.018-.7.106-1.018.26l-13.907 6.642a2.629 2.629 0 0 0-1.439 1.79l-3.43 14.925a2.617 2.617 0 0 0 .512 2.232l9.625 11.968a2.656 2.656 0 0 0 2.079.993l15.436-.004a2.677 2.677 0 0 0 2.079-.99l9.621-11.97a2.63 2.63 0 0 0 .514-2.231l-3.435-14.927a2.627 2.627 0 0 0-.514-1.056c-.249-.31-.565-.56-.925-.731L26.277 5.854a2.678 2.678 0 0 0-1.29-.257Zm.007 1.024c.421-.021.841.063 1.221.244l13.175 6.291a2.515 2.515 0 0 1 1.363 1.695l3.255 14.139a2.48 2.48 0 0 1-.487 2.114l-9.115 11.338a2.515 2.515 0 0 1-1.969.939l-14.622.003a2.536 2.536 0 0 1-1.97-.94L6.728 31.107a2.487 2.487 0 0 1-.485-2.114l3.25-14.138a2.49 2.49 0 0 1 .486-1.002c.236-.294.535-.53.876-.693l13.173-6.295c.303-.144.63-.227.966-.244Z"></path><path stroke="#fff" stroke-dasharray="2.12 .53" stroke-linejoin="round" stroke-miterlimit="10" stroke-width=".529" d="M35.392 21.626c0 1.378-4.596 2.494-10.266 2.494s-10.267-1.116-10.267-2.494c0-1.377 4.596-2.494 10.267-2.494 5.67 0 10.266 1.117 10.266 2.494Zm0 0v6.748c0 1.377-4.596 2.494-10.266 2.494s-10.267-1.117-10.267-2.494v-6.748"></path></g><defs><clipPath id="_PZvBQLXmlgOoHBswN-EC"><path fill="#fff" d="M0 0h40v38.813H0z" transform="translate(5.126 5.593)"></path></clipPath></defs></g></svg></svg><g transform="translate(55, 89)"><text x="0" y="0" text-anchor="middle" style="fill:#101840;font-size:10px" dominant-baseline="middle" alignment-baseline="middle"><tspan>Volume</tspan></text></g><rect width="60" height="60" x="25" y="25" fill="transparent"></rect><rect width="40" height="40" x="35" y="35" fill="transparent"></rect></g><g transform="translate(2915,2970)" width="110" height="110"><g transform="translate(30,30)"><path stroke="none" d="
    M 0, 16.6
    C 0, 2.9299 2.9299, 0 16.6, 0
    L 33.4, 0
    C 47.0701, 0 50, 2.9299 50, 16.6
    L 50, 33.4
    C 50, 47.0701 47.0701, 50 33.4, 50
    L 16.6, 50
    C 2.9299, 50 0, 47.0701 0, 33.4
    L 0, 16.6
  " stroke-width="2" fill="#dfe1e3"></path></g><svg viewBox="0 0 50 50" width="35" height="35" x="37.5" y="37.5"><svg id="Bx_agVaFrIL4NoCqzByZ-" xmlns="http://www.w3.org/2000/svg" viewBox="8.64 4.76 33.16 41.6" width="50" height="50"><path fill="#232F3D" fill-rule="evenodd" d="M32.021 43.215a38.18 38.18 0 0 1-3.602.428c-.508.037-1.024.064-1.546.084a47.68 47.68 0 0 1-3.186 0c-.524-.02-1.04-.047-1.547-.084a38.185 38.185 0 0 1-3.603-.428c-4.471-.758-7.25-2.348-7.25-4.149V13.563c2.731 1.728 7.964 2.803 13.993 2.803 6.023 0 11.189-1.058 13.93-2.768v25.468c0 1.835-2.687 3.386-7.189 4.15zM25.28 7.4c7.781 0 12.865 1.99 13.771 4.039-1.52 1.518-6.387 3.106-13.771 3.106-7.377 0-12.327-1.622-13.804-3.128l-.033.032c.897-2.052 6.009-4.049 13.837-4.049zm0-1.822c-9.312 0-15.815 2.677-15.815 6.51v26.98c0 1.664 1.14 4.652 8.767 5.946 1.195.201 2.465.352 3.776.447a45.39 45.39 0 0 0 1.613.088 47.102 47.102 0 0 0 3.317 0c.547-.02 1.083-.05 1.612-.088a40.303 40.303 0 0 0 3.776-.447c7.575-1.286 8.707-4.277 8.707-5.947V12.087c0-3.833-6.479-6.51-15.753-6.51z" clip-rule="evenodd"></path></svg></svg><g transform="translate(55, 89)"><text x="0" y="0" text-anchor="middle" style="fill:#101840;font-size:10px" dominant-baseline="middle" alignment-baseline="middle"><tspan>IfluxDB</tspan></text></g><rect width="60" height="60" x="25" y="25" fill="transparent"></rect><rect width="40" height="40" x="35" y="35" fill="transparent"></rect></g><g transform="translate(2640,2970)" width="110" height="110"><g transform="translate(30,30)"><path stroke="none" d="
    M 0, 16.6
    C 0, 2.9299 2.9299, 0 16.6, 0
    L 33.4, 0
    C 47.0701, 0 50, 2.9299 50, 16.6
    L 50, 33.4
    C 50, 47.0701 47.0701, 50 33.4, 50
    L 16.6, 50
    C 2.9299, 50 0, 47.0701 0, 33.4
    L 0, 16.6
  " stroke-width="2" fill="#dfe1e3"></path></g><svg viewBox="0 0 50 50" width="35" height="35" x="37.5" y="37.5"><svg id="QTcCXSfd_tIhhdBuXXGZf" xmlns="http://www.w3.org/2000/svg" viewBox="0 0 448 512" width="50" height="50"><path fill="#232F3D" d="M448 73.143v45.714C448 159.143 347.667 192 224 192S0 159.143 0 118.857V73.143C0 32.857 100.333 0 224 0s224 32.857 224 73.143zM448 176v102.857C448 319.143 347.667 352 224 352S0 319.143 0 278.857V176c48.125 33.143 136.208 48.572 224 48.572S399.874 209.143 448 176zm0 160v102.857C448 479.143 347.667 512 224 512S0 479.143 0 438.857V336c48.125 33.143 136.208 48.572 224 48.572S399.874 369.143 448 336z"></path></svg></svg><g transform="translate(55, 89)"><text x="0" y="0" text-anchor="middle" style="fill:#101840;font-size:10px" dominant-baseline="middle" alignment-baseline="middle"><tspan>minio</tspan></text></g><rect width="60" height="60" x="25" y="25" fill="transparent"></rect><rect width="40" height="40" x="35" y="35" fill="transparent"></rect></g><g transform="translate(2915,2805)" width="110" height="110"><g transform="translate(23,28)"><path stroke="none" d="
    M 0, 16.6
    C 0, 2.9299 2.9299, 0 16.6, 0
    L 33.4, 0
    C 47.0701, 0 50, 2.9299 50, 16.6
    L 50, 33.4
    C 50, 47.0701 47.0701, 50 33.4, 50
    L 16.6, 50
    C 2.9299, 50 0, 47.0701 0, 33.4
    L 0, 16.6
  " stroke-width="2" fill="#d5e1fa"></path><path transform="translate(5, 5)" d="m 0 44 c 3 3 7 4 15 4 h 16 c 14 0 17 -3 17 -17 v -16 c 0 -8 -1 -12 -4 -15 c 1 3 2 7 2 13 v 16 c 0 14 -3 17 -17 17 h -16 c -6 0 -10 -1 -13 -2 z" fill="#d5e1fa"></path><path transform="translate(8, 8)" d="m 0 44 c 3 3 7 4 15 4 h 16 c 14 0 17 -3 17 -17 v -16 c 0 -8 -1 -12 -4 -15 c 1 3 2 7 2 13 v 16 c 0 14 -3 17 -17 17 h -16 c -6 0 -10 -1 -13 -2 z" fill="#d5e1fa"></path><g transform="translate(59, 17)"><text transform="translate(0, 0)" style="font-size:7px;font-weight:bold;text-align:center;fill:#2754b2" text-anchor="start" alignment-baseline="middle" dominant-baseline="middle">master</text><text transform="translate(1, 6)" style="font-size:7px;font-weight:bold;text-align:center;fill:#2754b2" text-anchor="start">.</text><text transform="translate(1, 9)" style="font-size:7px;font-weight:bold;text-align:center;fill:#2754b2" text-anchor="start">.</text><text transform="translate(1, 12)" style="font-size:7px;font-weight:bold;text-align:center;fill:#2754b2" text-anchor="start">.</text><text transform="translate(0, 18)" style="font-size:7px;font-weight:bold;text-align:center;fill:#2754b2" text-anchor="start" alignment-baseline="middle" dominant-baseline="middle">slave</text></g></g><svg viewBox="0 0 50 50" width="35" height="35" x="30.5" y="35.5"><svg id="jJ5u_JUG_IAKfeXD608TU" xmlns="http://www.w3.org/2000/svg" viewBox="4.26 4.76 41.6 40.41" width="50" height="50"><g fill="none" fill-rule="evenodd"><g clip-path="url(#z9c9PMPOWs3pdgkdoE8CH)"><path fill="#326CE5" d="M24.94 6.62c-.335.017-.663.1-.965.245l-13.173 6.294a2.49 2.49 0 0 0-1.363 1.695l-3.25 14.138a2.478 2.478 0 0 0 .485 2.115l9.118 11.337a2.515 2.515 0 0 0 1.97.94l14.621-.004a2.535 2.535 0 0 0 1.97-.938l9.114-11.339a2.49 2.49 0 0 0 .487-2.114L40.7 14.85a2.49 2.49 0 0 0-1.363-1.694L26.162 6.865c-.38-.182-.8-.266-1.222-.245Z"></path><path fill="#fff" d="M24.933 5.597c-.353.018-.7.106-1.017.26l-13.908 6.642c-.36.172-.676.422-.925.732-.25.31-.425.671-.514 1.057l-3.43 14.926a2.617 2.617 0 0 0 .512 2.232l9.625 11.968a2.657 2.657 0 0 0 2.079.993l15.436-.004a2.677 2.677 0 0 0 2.079-.99l9.621-11.97a2.628 2.628 0 0 0 .514-2.231L41.57 14.285a2.627 2.627 0 0 0-.514-1.056c-.249-.31-.565-.56-.925-.731L26.224 5.854a2.678 2.678 0 0 0-1.29-.257Zm.007 1.024c.421-.021.841.063 1.221.244l13.175 6.291a2.515 2.515 0 0 1 1.363 1.695l3.255 14.139a2.48 2.48 0 0 1-.487 2.114l-9.114 11.338a2.515 2.515 0 0 1-1.97.939l-14.622.003a2.536 2.536 0 0 1-1.97-.94L6.675 31.107a2.487 2.487 0 0 1-.485-2.114l3.25-14.138a2.49 2.49 0 0 1 .486-1.002c.236-.294.535-.53.876-.693l13.173-6.295c.303-.144.63-.227.966-.244Z"></path><path fill="#fff" d="m17.041 19.374 8.03-2.33 8.031 2.33-8.03 2.329-8.03-2.33zm0 .892v8.544l7.482 4.145.038-10.453-7.52-2.236zm16.061 0v8.544l-7.482 4.145-.037-10.453 7.52-2.236z" clip-rule="evenodd"></path></g><defs><clipPath id="z9c9PMPOWs3pdgkdoE8CH"><path fill="#fff" d="M0 0h40v38.813H0z" transform="translate(5.072 5.593)"></path></clipPath></defs></g></svg></svg><g transform="translate(55, 91)"><text x="0" y="0" text-anchor="middle" style="fill:#101840;font-size:10px" dominant-baseline="middle" alignment-baseline="middle"><tspan>Jmeter</tspan></text></g><rect width="74" height="64" x="18" y="23" fill="transparent"></rect><rect width="54" height="44" x="28" y="33" fill="transparent"></rect></g><g transform="translate(2915,2530)" width="110" height="110"><g transform="translate(30,30)"><path stroke="none" d="
    M 0, 16.6
    C 0, 2.9299 2.9299, 0 16.6, 0
    L 33.4, 0
    C 47.0701, 0 50, 2.9299 50, 16.6
    L 50, 33.4
    C 50, 47.0701 47.0701, 50 33.4, 50
    L 16.6, 50
    C 2.9299, 50 0, 47.0701 0, 33.4
    L 0, 16.6
  " stroke-width="2" fill="#d5e1fa"></path></g><svg viewBox="0 0 50 50" width="35" height="35" x="37.5" y="37.5"><svg id="DVOzBX9gykTgKCiaUWmtC" xmlns="http://www.w3.org/2000/svg" viewBox="4.2 4.76 41.6 40.41" width="50" height="50"><g fill="none" fill-rule="evenodd"><g clip-path="url(#OhJUYd4RRUXHVUUoBmTX9)"><path fill="#326CE5" d="M24.886 6.62c-.335.017-.663.1-.965.245l-13.173 6.294a2.49 2.49 0 0 0-1.363 1.695l-3.25 14.138a2.478 2.478 0 0 0 .485 2.115l9.118 11.337a2.515 2.515 0 0 0 1.97.94l14.621-.004a2.535 2.535 0 0 0 1.97-.938l9.114-11.339a2.49 2.49 0 0 0 .487-2.114L40.645 14.85a2.515 2.515 0 0 0-1.363-1.695l-13.174-6.29c-.38-.182-.8-.266-1.222-.245Z"></path><path fill="#fff" d="M24.88 5.597c-.354.018-.7.106-1.018.26L9.954 12.498c-.36.172-.676.422-.925.732-.25.31-.425.671-.514 1.057l-3.43 14.926a2.617 2.617 0 0 0 .512 2.232l9.625 11.968a2.656 2.656 0 0 0 2.079.993l15.436-.004a2.677 2.677 0 0 0 2.079-.99l9.621-11.97a2.63 2.63 0 0 0 .514-2.231l-3.435-14.927a2.629 2.629 0 0 0-1.439-1.787L26.17 5.854a2.678 2.678 0 0 0-1.29-.257Zm.006 1.024c.421-.021.841.063 1.221.244l13.175 6.291a2.515 2.515 0 0 1 1.363 1.695L43.9 28.99a2.48 2.48 0 0 1-.487 2.114L34.3 42.442a2.515 2.515 0 0 1-1.97.939l-14.622.003a2.537 2.537 0 0 1-1.97-.94L6.62 31.107a2.487 2.487 0 0 1-.485-2.114l3.25-14.138a2.49 2.49 0 0 1 .486-1.002c.236-.294.535-.53.876-.693L23.92 6.865c.303-.144.63-.227.966-.244Z"></path><path fill="#fff" d="M31.112 34.033h-5.036L15.162 20.38h-3.158v-4.469h5.134l10.919 13.653h3.055V26.03l6.92 5.766-6.92 5.771v-3.534ZM25.62 23.486l2.437-3.05h3.055v3.534l6.92-5.766-6.92-5.771v3.534h-5.036l-3.232 4.046 2.776 3.473Zm-7.98 3.028-2.478 3.106h-3.158v4.469h5.134l3.278-4.102-2.776-3.473Z"></path></g><defs><clipPath id="OhJUYd4RRUXHVUUoBmTX9"><path fill="#fff" d="M0 0h40v38.813H0z" transform="translate(5.018 5.593)"></path></clipPath></defs></g></svg></svg><g transform="translate(55, 89)"><text x="0" y="0" text-anchor="middle" style="fill:#101840;font-size:10px" dominant-baseline="middle" alignment-baseline="middle"><tspan>Ingress</tspan></text></g><rect width="60" height="60" x="25" y="25" fill="transparent"></rect><rect width="40" height="40" x="35" y="35" fill="transparent"></rect></g><marker id="arrowhead_arr_WjhC4r8ylcsLEh4k5r6BU" refX="1" refY="3" orient="auto" markerWidth="8" markerHeight="8"><path d="M2.91922181,1.64495663 L4.49787879,4.07365967 C4.64837316,4.30518948 4.58268096,4.61488128 4.35115115,4.76537565 C4.27004602,4.81809399 4.17538993,4.84615385 4.07865698,4.84615385 L0.921343022,4.84615385 C0.645200647,4.84615385 0.421343022,4.62229622 0.421343022,4.34615385 C0.421343022,4.24942089 0.44940288,4.1547648 0.502121214,4.07365967 L2.08077819,1.64495663 C2.23127257,1.41342682 2.54096436,1.34773462 2.77249418,1.498229 C2.83112579,1.53633954 2.88111126,1.58632502 2.91922181,1.64495663 Z" fill="#afb4b7" transform="translate(2.500000, 2.923077) rotate(90.000000) translate(-2.500000, -2.923077)"></path></marker><path style="stroke-width:2px;stroke:#afb4b7" stroke-linecap="round" marker-end="url(#arrowhead_arr_WjhC4r8ylcsLEh4k5r6BU)" d="M 2724 2695 L 2754.85 2695 M 2774.15 2695 L 2801 2695 C 2803 2695 2805 2697 2805 2699 L 2805 2826  " fill="none" pointer-events="stroke" stroke-linejoin="round"></path><path style="stroke-width:4px;stroke:transparent" d="M 2724 2695 L 2754.85 2695 M 2774.15 2695 L 2801 2695 C 2803 2695 2805 2697 2805 2699 L 2805 2826  " fill="none" pointer-events="stroke"></path><path id="arr_WjhC4r8ylcsLEh4k5r6BU-label" d="M 2754.85 2695 L 2774.15 2695  "></path><text font-size="8" dominant-baseline="middle"><textPath href="#arr_WjhC4r8ylcsLEh4k5r6BU-label" alignment-baseline="middle" dominant-baseline="middle" startOffset="3">jmx</textPath></text><marker id="arrowhead_arr_aFjF26rIfwlB9gpDM9MOE" refX="1" refY="3" orient="auto" markerWidth="8" markerHeight="8"><path d="M2.91922181,1.64495663 L4.49787879,4.07365967 C4.64837316,4.30518948 4.58268096,4.61488128 4.35115115,4.76537565 C4.27004602,4.81809399 4.17538993,4.84615385 4.07865698,4.84615385 L0.921343022,4.84615385 C0.645200647,4.84615385 0.421343022,4.62229622 0.421343022,4.34615385 C0.421343022,4.24942089 0.44940288,4.1547648 0.502121214,4.07365967 L2.08077819,1.64495663 C2.23127257,1.41342682 2.54096436,1.34773462 2.77249418,1.498229 C2.83112579,1.53633954 2.88111126,1.58632502 2.91922181,1.64495663 Z" fill="#afb4b7" transform="translate(2.500000, 2.923077) rotate(90.000000) translate(-2.500000, -2.923077)"></path></marker><path style="stroke-width:2px;stroke:#afb4b7" stroke-linecap="round" marker-end="url(#arrowhead_arr_aFjF26rIfwlB9gpDM9MOE)" d="M 2999 3025 L 3107.05 3025 M 3136.95 3025 L 3241 3025 C 3243 3025 3245 3023 3245 3021 L 3245 2742  " fill="none" pointer-events="stroke" stroke-linejoin="round"></path><path style="stroke-width:4px;stroke:transparent" d="M 2999 3025 L 3107.05 3025 M 3136.95 3025 L 3241 3025 C 3243 3025 3245 3023 3245 3021 L 3245 2742  " fill="none" pointer-events="stroke"></path><path id="arr_aFjF26rIfwlB9gpDM9MOE-label" d="M 3107.05 3025 L 3136.95 3025  "></path><text font-size="8" dominant-baseline="middle"><textPath href="#arr_aFjF26rIfwlB9gpDM9MOE-label" alignment-baseline="middle" dominant-baseline="middle" startOffset="3">metric</textPath></text><marker id="arrowhead_arr_WQdCy99qcPMXfhHKYSGNg" refX="1" refY="3" orient="auto" markerWidth="8" markerHeight="8"><path d="M2.91922181,1.64495663 L4.49787879,4.07365967 C4.64837316,4.30518948 4.58268096,4.61488128 4.35115115,4.76537565 C4.27004602,4.81809399 4.17538993,4.84615385 4.07865698,4.84615385 L0.921343022,4.84615385 C0.645200647,4.84615385 0.421343022,4.62229622 0.421343022,4.34615385 C0.421343022,4.24942089 0.44940288,4.1547648 0.502121214,4.07365967 L2.08077819,1.64495663 C2.23127257,1.41342682 2.54096436,1.34773462 2.77249418,1.498229 C2.83112579,1.53633954 2.88111126,1.58632502 2.91922181,1.64495663 Z" fill="#afb4b7" transform="translate(2.500000, 2.923077) rotate(90.000000) translate(-2.500000, -2.923077)"></path></marker><path style="stroke-width:2px;stroke:#afb4b7" stroke-linecap="round" marker-end="url(#arrowhead_arr_WQdCy99qcPMXfhHKYSGNg)" d="M 2970 2242 L 2970 2276  " fill="none" pointer-events="stroke" stroke-linejoin="round"></path><path style="stroke-width:4px;stroke:transparent" d="M 2970 2242 L 2970 2276  " fill="none" pointer-events="stroke"></path><marker id="arrowhead_arr_00mUrcvDbf1qavOKH0aqL" refX="1" refY="3" orient="auto" markerWidth="8" markerHeight="8"><path d="M2.91922181,1.64495663 L4.49787879,4.07365967 C4.64837316,4.30518948 4.58268096,4.61488128 4.35115115,4.76537565 C4.27004602,4.81809399 4.17538993,4.84615385 4.07865698,4.84615385 L0.921343022,4.84615385 C0.645200647,4.84615385 0.421343022,4.62229622 0.421343022,4.34615385 C0.421343022,4.24942089 0.44940288,4.1547648 0.502121214,4.07365967 L2.08077819,1.64495663 C2.23127257,1.41342682 2.54096436,1.34773462 2.77249418,1.498229 C2.83112579,1.53633954 2.88111126,1.58632502 2.91922181,1.64495663 Z" fill="#afb4b7" transform="translate(2.500000, 2.923077) rotate(90.000000) translate(-2.500000, -2.923077)"></path></marker><path style="stroke-width:2px;stroke:#afb4b7" stroke-linecap="round" marker-end="url(#arrowhead_arr_00mUrcvDbf1qavOKH0aqL)" d="M 2970 2352 L 2970 2441  " fill="none" pointer-events="stroke" stroke-linejoin="round"></path><path style="stroke-width:4px;stroke:transparent" d="M 2970 2352 L 2970 2441  " fill="none" pointer-events="stroke"></path><marker id="arrowhead_arr_9NumVd0bQysd05FTwCVKJ" refX="1" refY="3" orient="auto" markerWidth="8" markerHeight="8"><path d="M2.91922181,1.64495663 L4.49787879,4.07365967 C4.64837316,4.30518948 4.58268096,4.61488128 4.35115115,4.76537565 C4.27004602,4.81809399 4.17538993,4.84615385 4.07865698,4.84615385 L0.921343022,4.84615385 C0.645200647,4.84615385 0.421343022,4.62229622 0.421343022,4.34615385 C0.421343022,4.24942089 0.44940288,4.1547648 0.502121214,4.07365967 L2.08077819,1.64495663 C2.23127257,1.41342682 2.54096436,1.34773462 2.77249418,1.498229 C2.83112579,1.53633954 2.88111126,1.58632502 2.91922181,1.64495663 Z" fill="#afb4b7" transform="translate(2.500000, 2.923077) rotate(90.000000) translate(-2.500000, -2.923077)"></path></marker><path style="stroke-width:2px;stroke:#afb4b7" stroke-linecap="round" marker-end="url(#arrowhead_arr_9NumVd0bQysd05FTwCVKJ)" d="M 2970 2904 L 2970 2932.55 M 2970 2962.45 L 2970 2991  " fill="none" pointer-events="stroke" stroke-linejoin="round"></path><path style="stroke-width:4px;stroke:transparent" d="M 2970 2904 L 2970 2932.55 M 2970 2962.45 L 2970 2991  " fill="none" pointer-events="stroke"></path><path id="arr_9NumVd0bQysd05FTwCVKJ-label" d="M 2970 2962.45 L 2970 2932.55  "></path><text font-size="8" dominant-baseline="middle"><textPath href="#arr_9NumVd0bQysd05FTwCVKJ-label" alignment-baseline="middle" dominant-baseline="middle" startOffset="3">metric</textPath></text><marker id="arrowhead_arr_YeKeM46fjGcCeejsRS4Mz" refX="1" refY="3" orient="auto" markerWidth="8" markerHeight="8"><path d="M2.91922181,1.64495663 L4.49787879,4.07365967 C4.64837316,4.30518948 4.58268096,4.61488128 4.35115115,4.76537565 C4.27004602,4.81809399 4.17538993,4.84615385 4.07865698,4.84615385 L0.921343022,4.84615385 C0.645200647,4.84615385 0.421343022,4.62229622 0.421343022,4.34615385 C0.421343022,4.24942089 0.44940288,4.1547648 0.502121214,4.07365967 L2.08077819,1.64495663 C2.23127257,1.41342682 2.54096436,1.34773462 2.77249418,1.498229 C2.83112579,1.53633954 2.88111126,1.58632502 2.91922181,1.64495663 Z" fill="#afb4b7" transform="translate(2.500000, 2.923077) rotate(90.000000) translate(-2.500000, -2.923077)"></path></marker><path style="stroke-width:2px;stroke:#afb4b7" stroke-linecap="round" marker-end="url(#arrowhead_arr_YeKeM46fjGcCeejsRS4Mz)" d="M 2970 2737 L 2970 2764.675 M 2970 2796.325 L 2970 2824  " fill="none" pointer-events="stroke" stroke-linejoin="round"></path><path style="stroke-width:4px;stroke:transparent" d="M 2970 2737 L 2970 2764.675 M 2970 2796.325 L 2970 2824  " fill="none" pointer-events="stroke"></path><path id="arr_YeKeM46fjGcCeejsRS4Mz-label" d="M 2970 2796.325 L 2970 2764.675  "></path><text font-size="8" dominant-baseline="middle"><textPath href="#arr_YeKeM46fjGcCeejsRS4Mz-label" alignment-baseline="middle" dominant-baseline="middle" startOffset="3">deploy</textPath></text><marker id="arrowhead_arr_QpsgrPwDlV95DfVcnZt7s" refX="1" refY="3" orient="auto" markerWidth="8" markerHeight="8"><path d="M2.91922181,1.64495663 L4.49787879,4.07365967 C4.64837316,4.30518948 4.58268096,4.61488128 4.35115115,4.76537565 C4.27004602,4.81809399 4.17538993,4.84615385 4.07865698,4.84615385 L0.921343022,4.84615385 C0.645200647,4.84615385 0.421343022,4.62229622 0.421343022,4.34615385 C0.421343022,4.24942089 0.44940288,4.1547648 0.502121214,4.07365967 L2.08077819,1.64495663 C2.23127257,1.41342682 2.54096436,1.34773462 2.77249418,1.498229 C2.83112579,1.53633954 2.88111126,1.58632502 2.91922181,1.64495663 Z" fill="#afb4b7" transform="translate(2.500000, 2.923077) rotate(90.000000) translate(-2.500000, -2.923077)"></path></marker><path style="stroke-width:2px;stroke:#afb4b7" stroke-linecap="round" marker-end="url(#arrowhead_arr_QpsgrPwDlV95DfVcnZt7s)" d="M 2695 2737 L 2695 2854.35 M 2695 2873.65 L 2695 2991  " fill="none" pointer-events="stroke" stroke-linejoin="round"></path><path style="stroke-width:4px;stroke:transparent" d="M 2695 2737 L 2695 2854.35 M 2695 2873.65 L 2695 2991  " fill="none" pointer-events="stroke"></path><path id="arr_QpsgrPwDlV95DfVcnZt7s-label" d="M 2695 2873.65 L 2695 2854.35  "></path><text font-size="8" dominant-baseline="middle"><textPath href="#arr_QpsgrPwDlV95DfVcnZt7s-label" alignment-baseline="middle" dominant-baseline="middle" startOffset="3">jmx</textPath></text><marker id="arrowhead_arr_ND0pIAB4esHuJy9mM2IwX" refX="1" refY="3" orient="auto" markerWidth="8" markerHeight="8"><path d="M2.91922181,1.64495663 L4.49787879,4.07365967 C4.64837316,4.30518948 4.58268096,4.61488128 4.35115115,4.76537565 C4.27004602,4.81809399 4.17538993,4.84615385 4.07865698,4.84615385 L0.921343022,4.84615385 C0.645200647,4.84615385 0.421343022,4.62229622 0.421343022,4.34615385 C0.421343022,4.24942089 0.44940288,4.1547648 0.502121214,4.07365967 L2.08077819,1.64495663 C2.23127257,1.41342682 2.54096436,1.34773462 2.77249418,1.498229 C2.83112579,1.53633954 2.88111126,1.58632502 2.91922181,1.64495663 Z" fill="#afb4b7" transform="translate(2.500000, 2.923077) rotate(90.000000) translate(-2.500000, -2.923077)"></path></marker><path style="stroke-width:2px;stroke:#afb4b7" stroke-linecap="round" marker-end="url(#arrowhead_arr_ND0pIAB4esHuJy9mM2IwX)" d="M 2834 2864.5 L 2871.85 2864.5 M 2891.15 2864.5 L 2929 2864.5  " fill="none" pointer-events="stroke" stroke-linejoin="round" stroke-dasharray="4,4"></path><path style="stroke-width:4px;stroke:transparent" d="M 2834 2864.5 L 2871.85 2864.5 M 2891.15 2864.5 L 2929 2864.5  " fill="none" pointer-events="stroke"></path><path id="arr_ND0pIAB4esHuJy9mM2IwX-label" d="M 2871.85 2864.5 L 2891.15 2864.5  "></path><text font-size="8" dominant-baseline="middle"><textPath href="#arr_ND0pIAB4esHuJy9mM2IwX-label" alignment-baseline="middle" dominant-baseline="middle" startOffset="3">jmx</textPath></text><marker id="arrowhead_arr_gD9cyOoeHkMwBsaOHih2m" refX="1" refY="3" orient="auto" markerWidth="8" markerHeight="8"><path d="M2.91922181,1.64495663 L4.49787879,4.07365967 C4.64837316,4.30518948 4.58268096,4.61488128 4.35115115,4.76537565 C4.27004602,4.81809399 4.17538993,4.84615385 4.07865698,4.84615385 L0.921343022,4.84615385 C0.645200647,4.84615385 0.421343022,4.62229622 0.421343022,4.34615385 C0.421343022,4.24942089 0.44940288,4.1547648 0.502121214,4.07365967 L2.08077819,1.64495663 C2.23127257,1.41342682 2.54096436,1.34773462 2.77249418,1.498229 C2.83112579,1.53633954 2.88111126,1.58632502 2.91922181,1.64495663 Z" fill="#afb4b7" transform="translate(2.500000, 2.923077) rotate(90.000000) translate(-2.500000, -2.923077)"></path></marker><path style="stroke-width:2px;stroke:#afb4b7" stroke-linecap="round" marker-end="url(#arrowhead_arr_gD9cyOoeHkMwBsaOHih2m)" d="M 2934 2855.5 L 2896.15 2855.5 M 2876.85 2855.5 L 2839 2855.5  " fill="none" pointer-events="stroke" stroke-linejoin="round" stroke-dasharray="4,4"></path><path style="stroke-width:4px;stroke:transparent" d="M 2934 2855.5 L 2896.15 2855.5 M 2876.85 2855.5 L 2839 2855.5  " fill="none" pointer-events="stroke"></path><path id="arr_gD9cyOoeHkMwBsaOHih2m-label" d="M 2876.85 2855.5 L 2896.15 2855.5  "></path><text font-size="8" dominant-baseline="middle"><textPath href="#arr_gD9cyOoeHkMwBsaOHih2m-label" alignment-baseline="middle" dominant-baseline="middle" startOffset="3">jmx</textPath></text><marker id="arrowhead_arr_CMUbJkRMAujk2xnCOJSC5" refX="1" refY="3" orient="auto" markerWidth="8" markerHeight="8"><path d="M2.91922181,1.64495663 L4.49787879,4.07365967 C4.64837316,4.30518948 4.58268096,4.61488128 4.35115115,4.76537565 C4.27004602,4.81809399 4.17538993,4.84615385 4.07865698,4.84615385 L0.921343022,4.84615385 C0.645200647,4.84615385 0.421343022,4.62229622 0.421343022,4.34615385 C0.421343022,4.24942089 0.44940288,4.1547648 0.502121214,4.07365967 L2.08077819,1.64495663 C2.23127257,1.41342682 2.54096436,1.34773462 2.77249418,1.498229 C2.83112579,1.53633954 2.88111126,1.58632502 2.91922181,1.64495663 Z" fill="#afb4b7" transform="translate(2.500000, 2.923077) rotate(90.000000) translate(-2.500000, -2.923077)"></path></marker><path style="stroke-width:2px;stroke:#afb4b7" stroke-linecap="round" marker-end="url(#arrowhead_arr_CMUbJkRMAujk2xnCOJSC5)" d="M 2970 2517 L 2970 2551  " fill="none" pointer-events="stroke" stroke-linejoin="round"></path><path style="stroke-width:4px;stroke:transparent" d="M 2970 2517 L 2970 2551  " fill="none" pointer-events="stroke"></path><marker id="arrowhead_arr_NqzQveAkKj9oN2SUJ0YKn" refX="1" refY="3" orient="auto" markerWidth="8" markerHeight="8"><path d="M2.91922181,1.64495663 L4.49787879,4.07365967 C4.64837316,4.30518948 4.58268096,4.61488128 4.35115115,4.76537565 C4.27004602,4.81809399 4.17538993,4.84615385 4.07865698,4.84615385 L0.921343022,4.84615385 C0.645200647,4.84615385 0.421343022,4.62229622 0.421343022,4.34615385 C0.421343022,4.24942089 0.44940288,4.1547648 0.502121214,4.07365967 L2.08077819,1.64495663 C2.23127257,1.41342682 2.54096436,1.34773462 2.77249418,1.498229 C2.83112579,1.53633954 2.88111126,1.58632502 2.91922181,1.64495663 Z" fill="#afb4b7" transform="translate(2.500000, 2.923077) rotate(90.000000) translate(-2.500000, -2.923077)"></path></marker><path style="stroke-width:2px;stroke:#afb4b7" stroke-linecap="round" marker-end="url(#arrowhead_arr_NqzQveAkKj9oN2SUJ0YKn)" d="M 2999 2585 L 3241 2585 C 3243 2585 3245 2587 3245 2589 L 3245 2661  " fill="none" pointer-events="stroke" stroke-linejoin="round"></path><path style="stroke-width:4px;stroke:transparent" d="M 2999 2585 L 3241 2585 C 3243 2585 3245 2587 3245 2589 L 3245 2661  " fill="none" pointer-events="stroke"></path><marker id="arrowhead_arr_UPEuzbA4RGi7YXWJXjWFo" refX="1" refY="3" orient="auto" markerWidth="8" markerHeight="8"><path d="M2.91922181,1.64495663 L4.49787879,4.07365967 C4.64837316,4.30518948 4.58268096,4.61488128 4.35115115,4.76537565 C4.27004602,4.81809399 4.17538993,4.84615385 4.07865698,4.84615385 L0.921343022,4.84615385 C0.645200647,4.84615385 0.421343022,4.62229622 0.421343022,4.34615385 C0.421343022,4.24942089 0.44940288,4.1547648 0.502121214,4.07365967 L2.08077819,1.64495663 C2.23127257,1.41342682 2.54096436,1.34773462 2.77249418,1.498229 C2.83112579,1.53633954 2.88111126,1.58632502 2.91922181,1.64495663 Z" fill="#afb4b7" transform="translate(2.500000, 2.923077) rotate(90.000000) translate(-2.500000, -2.923077)"></path></marker><path style="stroke-width:2px;stroke:#afb4b7" stroke-linecap="round" marker-end="url(#arrowhead_arr_UPEuzbA4RGi7YXWJXjWFo)" d="M 2941 2585 L 2699 2585 C 2697 2585 2695 2587 2695 2589 L 2695 2661  " fill="none" pointer-events="stroke" stroke-linejoin="round"></path><path style="stroke-width:4px;stroke:transparent" d="M 2941 2585 L 2699 2585 C 2697 2585 2695 2587 2695 2589 L 2695 2661  " fill="none" pointer-events="stroke"></path><marker id="arrowhead_arr_AfniHb24DT0WVk6IVZlpy" refX="1" refY="3" orient="auto" markerWidth="8" markerHeight="8"><path d="M2.91922181,1.64495663 L4.49787879,4.07365967 C4.64837316,4.30518948 4.58268096,4.61488128 4.35115115,4.76537565 C4.27004602,4.81809399 4.17538993,4.84615385 4.07865698,4.84615385 L0.921343022,4.84615385 C0.645200647,4.84615385 0.421343022,4.62229622 0.421343022,4.34615385 C0.421343022,4.24942089 0.44940288,4.1547648 0.502121214,4.07365967 L2.08077819,1.64495663 C2.23127257,1.41342682 2.54096436,1.34773462 2.77249418,1.498229 C2.83112579,1.53633954 2.88111126,1.58632502 2.91922181,1.64495663 Z" fill="#afb4b7" transform="translate(2.500000, 2.923077) rotate(90.000000) translate(-2.500000, -2.923077)"></path></marker><path style="stroke-width:2px;stroke:#afb4b7" stroke-linecap="round" marker-end="url(#arrowhead_arr_AfniHb24DT0WVk6IVZlpy)" d="M 2970 2627 L 2970 2661  " fill="none" pointer-events="stroke" stroke-linejoin="round"></path><path style="stroke-width:4px;stroke:transparent" d="M 2970 2627 L 2970 2661  " fill="none" pointer-events="stroke"></path></g></svg>